<svg xmlns="http://www.w3.org/2000/svg" width="760" height="900" viewBox="0 0 760 900" font-family="Helvetica, Arial, sans-serif">
<rect width="760" height="900" fill="white"/>
<rect x="62" y="26" width="682" height="238" fill="white" stroke="#000" stroke-width="0.8"/>
<line x1="62" y1="26" x2="62" y2="264" stroke="#ddd" stroke-width="0.5"/>
<line x1="118.8" y1="26" x2="118.8" y2="264" stroke="#ddd" stroke-width="0.5"/>
<line x1="175.7" y1="26" x2="175.7" y2="264" stroke="#ddd" stroke-width="0.5"/>
<line x1="232.5" y1="26" x2="232.5" y2="264" stroke="#ddd" stroke-width="0.5"/>
<line x1="289.3" y1="26" x2="289.3" y2="264" stroke="#ddd" stroke-width="0.5"/>
<line x1="346.2" y1="26" x2="346.2" y2="264" stroke="#ddd" stroke-width="0.5"/>
<line x1="403" y1="26" x2="403" y2="264" stroke="#ddd" stroke-width="0.5"/>
<line x1="459.8" y1="26" x2="459.8" y2="264" stroke="#ddd" stroke-width="0.5"/>
<line x1="516.7" y1="26" x2="516.7" y2="264" stroke="#ddd" stroke-width="0.5"/>
<line x1="573.5" y1="26" x2="573.5" y2="264" stroke="#ddd" stroke-width="0.5"/>
<line x1="630.3" y1="26" x2="630.3" y2="264" stroke="#ddd" stroke-width="0.5"/>
<line x1="687.2" y1="26" x2="687.2" y2="264" stroke="#ddd" stroke-width="0.5"/>
<line x1="744" y1="26" x2="744" y2="264" stroke="#ddd" stroke-width="0.5"/>
<line x1="62" y1="233.8" x2="744" y2="233.8" stroke="#ddd" stroke-width="0.5"/>
<text x="57" y="237.8" font-size="11" text-anchor="end">0.28</text>
<line x1="62" y1="190.2" x2="744" y2="190.2" stroke="#ddd" stroke-width="0.5"/>
<text x="57" y="194.2" font-size="11" text-anchor="end">0.3</text>
<line x1="62" y1="146.6" x2="744" y2="146.6" stroke="#ddd" stroke-width="0.5"/>
<text x="57" y="150.6" font-size="11" text-anchor="end">0.32</text>
<line x1="62" y1="103.1" x2="744" y2="103.1" stroke="#ddd" stroke-width="0.5"/>
<text x="57" y="107.1" font-size="11" text-anchor="end">0.34</text>
<line x1="62" y1="59.5" x2="744" y2="59.5" stroke="#ddd" stroke-width="0.5"/>
<text x="57" y="63.5" font-size="11" text-anchor="end">0.36</text>
<line x1="62" y1="129.8" x2="744" y2="129.8" stroke="#666" stroke-width="1.3" stroke-dasharray="6,4"/>
<polyline points="62,211.8 63.8,78.1 65.6,140.9 67.3,176.9 69.1,134.4 70.9,131.5 72.7,69.9 74.4,84.8 76.2,151.7 78,132.3 79.8,160.3 81.5,141.7 83.3,138.8 85.1,177.6 86.9,160.9 88.6,195.1 90.4,118.3 92.2,34.8 94,108.8 95.7,128.4 97.5,114.2 99.3,152.8 101.1,150.5 102.8,137.5 104.6,163.2 106.4,150.7 108.2,148.4 110,101.3 111.7,107.5 113.5,168.7 115.3,172.8 117.1,155.5 118.8,94.1 120.6,83.4 122.4,108.7 124.2,112.8 125.9,135.7 127.7,156.7 129.5,154 131.3,172.8 133,175.8 134.8,116.5 136.6,123.8 138.4,140.2 140.1,99.2 141.9,110.3 143.7,112.5 145.5,118.4 147.3,132.4 149,138.2 150.8,146.6 152.6,172.4 154.4,132.1 156.1,147 157.9,118.7 159.7,132.4 161.5,79.5 163.2,131.9 165,165.6 166.8,131.4 168.6,109.3 170.3,125.3 172.1,98 173.9,136.6 175.7,132.4 177.4,173.1 179.2,159.1 181,142.7 182.8,125.3 184.5,117.5 186.3,109.5 188.1,79.3 189.9,88.3 191.7,111.8 193.4,150.2 195.2,162 197,132.5 198.8,130 200.5,132 202.3,149.9 204.1,156.5 205.9,144.2 207.6,118.1 209.4,117.4 211.2,120.3 213,134.3 214.7,108.1 216.5,105 218.3,119.1 220.1,141.6 221.8,164.1 223.6,124.9 225.4,132 227.2,148.3 228.9,137.2 230.7,119.9 232.5,123.1 234.3,116.2 236.1,104.6 237.8,103.3 239.6,88.9 241.4,150 243.2,145 244.9,143.3 246.7,146.6 248.5,124.2 250.3,118.1 252,136.7 253.8,130.8 255.6,125.3 257.4,146.6 259.1,153.8 260.9,101.3 262.7,118.7 264.5,126.6 266.2,106.4 268,139.8 269.8,146.7 271.6,160.8 273.3,164.9 275.1,143.9 276.9,119 278.7,102.2 280.5,108.6 282.2,123.3 284,117.6 285.8,118.4 287.6,107.7 289.3,145.3 291.1,163.1 292.9,138.9 294.7,116.4 296.4,148.7 298.2,131.1 300,113.2 301.8,112.2 303.5,123.5 305.3,122.4 307.1,124.4 308.9,143.4 310.6,135.2 312.4,138.3 314.2,110.9 316,143.4 317.8,132.9 319.5,154.6 321.3,162.3 323.1,137 324.9,116 326.6,123.3 328.4,97.4 330.2,98.9 332,94.8 333.7,126.2 335.5,142.8 337.3,126.8 339.1,168.7 340.8,130.1 342.6,120.6 344.4,133.7 346.2,120.3 347.9,125.7 349.7,123.9 351.5,129.2 353.3,136.2 355,111.3 356.8,113.1 358.6,119.7 360.4,150.4 362.2,148 363.9,129.9 365.7,122.3 367.5,153.3 369.3,129.4 371,125.7 372.8,122.1 374.6,118.4 376.4,120.4 378.1,133.9 379.9,109.9 381.7,109.3 383.5,137.9 385.2,146.3 387,156.7 388.8,154.2 390.6,121.5 392.3,117.1 394.1,122.4 395.9,128.6 397.7,130.5 399.4,131.5 401.2,132.7 403,138 404.8,137.1 406.6,121.4 408.3,126.8 410.1,149.5 411.9,132.2 413.7,142.5 415.4,158.8 417.2,131.9 419,109.1 420.8,108.3 422.5,108.9 424.3,129.4 426.1,120.9 427.9,124.3 429.6,132.2 431.4,143.3 433.2,143 435,133.2 436.7,142.9 438.5,130.4 440.3,119.4 442.1,142.4 443.8,110.9 445.6,125.1 447.4,113.4 449.2,130.5 451,138.6 452.7,134.2 454.5,133.6 456.3,144.1 458.1,129 459.8,144.2 461.6,120.7 463.4,142.4 465.2,145.3 466.9,132.1 468.7,104.3 470.5,99.3 472.3,117 474,116.4 475.8,140.6 477.6,139.5 479.4,141.2 481.1,141.8 482.9,130.6 484.7,124.9 486.5,137.4 488.3,114.5 490,109.9 491.8,131.5 493.6,142 495.4,118.3 497.1,108.1 498.9,128 500.7,129.7 502.5,141.5 504.2,142 506,138.4 507.8,137.9 509.6,119.9 511.3,138.7 513.1,127.9 514.9,111.9 516.7,99.9 518.4,119.9 520.2,133.3 522,132.4 523.8,137.2 525.5,124.7 527.3,141 529.1,149.6 530.9,148 532.7,115.7 534.4,111.3 536.2,128.2 538,107.7 539.8,126.4 541.5,137.6 543.3,136.1 545.1,128.8 546.9,137.7 548.6,120.6 550.4,132.8 552.2,133.7 554,145 555.7,135.5 557.5,129.7 559.3,136.9 561.1,128.8 562.8,117.4 564.6,115.9 566.4,132.7 568.2,129.3 569.9,132.4 571.7,142.7 573.5,131.7 575.3,152.6 577.1,126.3 578.8,128.5 580.6,122 582.4,126.3 584.2,119.3 585.9,122 587.7,118.3 589.5,131.6 591.3,140.3 593,146.1 594.8,122.2 596.6,125 598.4,146.2 600.1,136.4 601.9,129.3 603.7,123.3 605.5,128 607.2,139.1 609,124.3 610.8,123.1 612.6,123.4 614.3,114.1 616.1,123.1 617.9,151.3 619.7,141 621.5,136.4 623.2,139.9 625,137.1 626.8,124.8 628.6,112 630.3,116.3 632.1,117.4 633.9,126.2 635.7,132.2 637.4,122.5 639.2,133.9 641,128.6 642.8,118.2 644.5,131.8 646.3,128.1 648.1,134.3 649.9,130.4 651.6,121.8 653.4,134.9 655.2,119.1 657,124.4 658.8,121.2 660.5,132 662.3,129.6 664.1,133.4 665.9,133.2 667.6,136.3 669.4,140 671.2,130 673,133.7 674.7,129.1 676.5,119.3 678.3,122.8 680.1,108.7 681.8,127.8 683.6,123.5 685.4,132.4 687.2,155.9 688.9,143.8 690.7,126 692.5,121.3 694.3,118.8 696,145.7 697.8,131 699.6,125.9 701.4,125.5 703.2,115.9 704.9,121.3 706.7,124 708.5,121.2 710.3,148.2 712,131.4 713.8,144.6 715.6,146.7 717.4,134 719.1,137.8 720.9,121.9 722.7,127.4 724.5,124.7 726.2,135.9 728,121.5 729.8,124.7 731.6,133.3 733.3,142.6 735.1,137.4 736.9,143.5 738.7,137.5 740.4,121.3 742.2,132.1 744,134.8" fill="none" stroke="#000" stroke-width="0.85"/>
<line x1="414" y1="36" x2="444" y2="36" stroke="#000" stroke-width="0.85"/>
<text x="450" y="40" font-size="11">partial Euler product, χ4 (real)</text>
<line x1="414" y1="51" x2="444" y2="51" stroke="#666" stroke-width="1.3" stroke-dasharray="6,4"/>
<text x="450" y="55" font-size="11">√2·L(1/2,χ4) = 0.327745333…</text>
<text x="14" y="145" font-size="11" text-anchor="middle" transform="rotate(-90 14 145)">χ4</text>
<text x="403.0" y="16" font-size="13" text-anchor="middle">Characters mod 5 (Q(ζ5)): partial Euler products up to x = 10^15</text>
<rect x="62" y="326" width="682" height="238" fill="white" stroke="#000" stroke-width="0.8"/>
<line x1="62" y1="326" x2="62" y2="564" stroke="#ddd" stroke-width="0.5"/>
<line x1="118.8" y1="326" x2="118.8" y2="564" stroke="#ddd" stroke-width="0.5"/>
<line x1="175.7" y1="326" x2="175.7" y2="564" stroke="#ddd" stroke-width="0.5"/>
<line x1="232.5" y1="326" x2="232.5" y2="564" stroke="#ddd" stroke-width="0.5"/>
<line x1="289.3" y1="326" x2="289.3" y2="564" stroke="#ddd" stroke-width="0.5"/>
<line x1="346.2" y1="326" x2="346.2" y2="564" stroke="#ddd" stroke-width="0.5"/>
<line x1="403" y1="326" x2="403" y2="564" stroke="#ddd" stroke-width="0.5"/>
<line x1="459.8" y1="326" x2="459.8" y2="564" stroke="#ddd" stroke-width="0.5"/>
<line x1="516.7" y1="326" x2="516.7" y2="564" stroke="#ddd" stroke-width="0.5"/>
<line x1="573.5" y1="326" x2="573.5" y2="564" stroke="#ddd" stroke-width="0.5"/>
<line x1="630.3" y1="326" x2="630.3" y2="564" stroke="#ddd" stroke-width="0.5"/>
<line x1="687.2" y1="326" x2="687.2" y2="564" stroke="#ddd" stroke-width="0.5"/>
<line x1="744" y1="326" x2="744" y2="564" stroke="#ddd" stroke-width="0.5"/>
<line x1="62" y1="562.2" x2="744" y2="562.2" stroke="#ddd" stroke-width="0.5"/>
<text x="57" y="566.2" font-size="11" text-anchor="end">0.7</text>
<line x1="62" y1="507.8" x2="744" y2="507.8" stroke="#ddd" stroke-width="0.5"/>
<text x="57" y="511.8" font-size="11" text-anchor="end">0.75</text>
<line x1="62" y1="453.3" x2="744" y2="453.3" stroke="#ddd" stroke-width="0.5"/>
<text x="57" y="457.3" font-size="11" text-anchor="end">0.8</text>
<line x1="62" y1="398.8" x2="744" y2="398.8" stroke="#ddd" stroke-width="0.5"/>
<text x="57" y="402.8" font-size="11" text-anchor="end">0.85</text>
<line x1="62" y1="344.3" x2="744" y2="344.3" stroke="#ddd" stroke-width="0.5"/>
<text x="57" y="348.3" font-size="11" text-anchor="end">0.9</text>
<line x1="62" y1="492.8" x2="744" y2="492.8" stroke="#666" stroke-width="1.3" stroke-dasharray="6,4"/>
<polyline points="62,505.3 63.8,498.7 65.6,492 67.3,409.1 69.1,473.4 70.9,488 72.7,453.3 74.4,501.8 76.2,541.9 78,496.4 79.8,521.6 81.5,508.9 83.3,460.3 85.1,443.5 86.9,480.7 88.6,514 90.4,541.7 92.2,522.9 94,514.8 95.7,515.2 97.5,536.4 99.3,512.6 101.1,474.8 102.8,515.9 104.6,468.1 106.4,463 108.2,426.1 110,422.7 111.7,472.9 113.5,517.7 115.3,520.1 117.1,498.1 118.8,469.3 120.6,489.7 122.4,521.1 124.2,517.9 125.9,533.2 127.7,518.5 129.5,530.7 131.3,500 133,509.5 134.8,495 136.6,468.1 138.4,475.5 140.1,478.5 141.9,494.5 143.7,462.4 145.5,478.8 147.3,475.7 149,486.8 150.8,464.2 152.6,479.7 154.4,508.8 156.1,486.1 157.9,502 159.7,479.2 161.5,492.3 163.2,508.6 165,474.5 166.8,490.4 168.6,527.4 170.3,535.7 172.1,525 173.9,488.4 175.7,513.1 177.4,504.4 179.2,483.6 181,456.1 182.8,433.2 184.5,464.3 186.3,495.7 188.1,471.2 189.9,486.9 191.7,507.2 193.4,472.4 195.2,498.1 197,523 198.8,522.2 200.5,492.9 202.3,520.8 204.1,507.8 205.9,504.6 207.6,493.4 209.4,498.5 211.2,495 213,476.2 214.7,487 216.5,483 218.3,441 220.1,448.4 221.8,499.8 223.6,515.3 225.4,513.8 227.2,490.7 228.9,492.9 230.7,464.6 232.5,462.6 234.3,478 236.1,493.3 237.8,533.3 239.6,501.7 241.4,516.5 243.2,507.8 244.9,521.6 246.7,495.5 248.5,509.7 250.3,508.1 252,480 253.8,477.5 255.6,453.5 257.4,490.5 259.1,487.7 260.9,479.9 262.7,481.8 264.5,474.2 266.2,478.4 268,501.2 269.8,511.8 271.6,505.3 273.3,508.4 275.1,516.7 276.9,499.1 278.7,517.2 280.5,510 282.2,481.5 284,489.9 285.8,482.7 287.6,490.9 289.3,473.2 291.1,462.8 292.9,488.6 294.7,498 296.4,469.3 298.2,486.1 300,485 301.8,504.7 303.5,485.2 305.3,488.4 307.1,495.7 308.9,483.9 310.6,505.4 312.4,500.5 314.2,510.5 316,493.1 317.8,493.6 319.5,506.4 321.3,529.2 323.1,499.6 324.9,518.1 326.6,481.9 328.4,456.4 330.2,473.2 332,489.4 333.7,500.8 335.5,471.4 337.3,469.2 339.1,483.3 340.8,473 342.6,491.2 344.4,493.5 346.2,482.4 347.9,505.8 349.7,520.7 351.5,512.8 353.3,509.7 355,496.6 356.8,515.3 358.6,500.1 360.4,495.4 362.2,459.8 363.9,473.2 365.7,484.6 367.5,490.7 369.3,500.2 371,476.3 372.8,491.7 374.6,496.7 376.4,493 378.1,490 379.9,470.7 381.7,481.7 383.5,484.3 385.2,496.8 387,504.3 388.8,498.2 390.6,516.1 392.3,498.2 394.1,492.7 395.9,506.9 397.7,499.6 399.4,483.1 401.2,478.3 403,490.8 404.8,501.2 406.6,486.3 408.3,490.1 410.1,455.2 411.9,475.3 413.7,469.4 415.4,476.1 417.2,486.7 419,492.7 420.8,512 422.5,511.9 424.3,499.9 426.1,504.6 427.9,506.1 429.6,512.7 431.4,501.8 433.2,502.2 435,476.3 436.7,472.6 438.5,477.2 440.3,490.9 442.1,496.4 443.8,487.6 445.6,498.8 447.4,494.9 449.2,488.2 451,481.1 452.7,491.7 454.5,478.8 456.3,502.5 458.1,501.3 459.8,487.1 461.6,480.3 463.4,487.2 465.2,493.8 466.9,503.6 468.7,509.5 470.5,501.6 472.3,498.5 474,494.1 475.8,488.9 477.6,486.3 479.4,485.7 481.1,471.8 482.9,485.1 484.7,488.3 486.5,483.6 488.3,481.4 490,485.7 491.8,472.9 493.6,485.4 495.4,489.7 497.1,493.8 498.9,513.7 500.7,513.5 502.5,508.9 504.2,513.6 506,489.5 507.8,503.7 509.6,489.3 511.3,480.4 513.1,499 514.9,491.7 516.7,480.7 518.4,500.6 520.2,490.5 522,498.2 523.8,495.5 525.5,477.9 527.3,476.3 529.1,496 530.9,484.5 532.7,492.4 534.4,495 536.2,498.2 538,498.3 539.8,503.1 541.5,513.6 543.3,502.8 545.1,498.1 546.9,490.8 548.6,488.2 550.4,490.2 552.2,489.6 554,506.4 555.7,500.8 557.5,484.8 559.3,462 561.1,478.5 562.8,491.2 564.6,468.7 566.4,491.3 568.2,504.9 569.9,498.2 571.7,511.8 573.5,507.4 575.3,503.2 577.1,503.9 578.8,503 580.6,493.2 582.4,490.8 584.2,493.7 585.9,495.9 587.7,489.6 589.5,484.3 591.3,493.9 593,485.6 594.8,489.4 596.6,497.8 598.4,491 600.1,488.9 601.9,491.8 603.7,487.3 605.5,496.6 607.2,497.3 609,496.9 610.8,493.1 612.6,496.3 614.3,500 616.1,489.7 617.9,506.9 619.7,492.4 621.5,491.7 623.2,500.3 625,503.2 626.8,492.8 628.6,498.4 630.3,489.6 632.1,480.6 633.9,481.7 635.7,489.5 637.4,479.4 639.2,479.3 641,486.5 642.8,488.2 644.5,497.8 646.3,497.8 648.1,488.6 649.9,511.7 651.6,513.2 653.4,506.1 655.2,490.5 657,491.4 658.8,479.7 660.5,484.1 662.3,487.5 664.1,490 665.9,497.2 667.6,486.8 669.4,490.1 671.2,494.9 673,475.8 674.7,487.9 676.5,489.9 678.3,498.2 680.1,500.2 681.8,491.4 683.6,493.3 685.4,494.8 687.2,499.4 688.9,497.9 690.7,498.2 692.5,485.8 694.3,497.8 696,498.1 697.8,500.1 699.6,494.3 701.4,508 703.2,498.6 704.9,487.7 706.7,491.4 708.5,486.3 710.3,470.7 712,474.4 713.8,485.1 715.6,484.7 717.4,500.1 719.1,504.3 720.9,495.1 722.7,493.2 724.5,505.9 726.2,498.3 728,491.7 729.8,495.8 731.6,498.5 733.3,498.5 735.1,494.4 736.9,495.4 738.7,485.8 740.4,491.2 742.2,489.3 744,488.5" fill="none" stroke="#000" stroke-width="0.85"/>
<line x1="414" y1="336" x2="444" y2="336" stroke="#000" stroke-width="0.85"/>
<text x="450" y="340" font-size="11">Re of partial Euler product, χ2</text>
<line x1="414" y1="351" x2="444" y2="351" stroke="#666" stroke-width="1.3" stroke-dasharray="6,4"/>
<text x="450" y="355" font-size="11">Re L(1/2,χ2) = 0.763747880…</text>
<text x="14" y="445" font-size="11" text-anchor="middle" transform="rotate(-90 14 445)">χ2: real part</text>
<rect x="62" y="626" width="682" height="238" fill="white" stroke="#000" stroke-width="0.8"/>
<line x1="62" y1="626" x2="62" y2="864" stroke="#ddd" stroke-width="0.5"/>
<text x="62" y="879" font-size="11" text-anchor="middle">10<tspan dy="-5" font-size="8">3</tspan></text>
<line x1="118.8" y1="626" x2="118.8" y2="864" stroke="#ddd" stroke-width="0.5"/>
<line x1="175.7" y1="626" x2="175.7" y2="864" stroke="#ddd" stroke-width="0.5"/>
<text x="175.7" y="879" font-size="11" text-anchor="middle">10<tspan dy="-5" font-size="8">5</tspan></text>
<line x1="232.5" y1="626" x2="232.5" y2="864" stroke="#ddd" stroke-width="0.5"/>
<line x1="289.3" y1="626" x2="289.3" y2="864" stroke="#ddd" stroke-width="0.5"/>
<text x="289.3" y="879" font-size="11" text-anchor="middle">10<tspan dy="-5" font-size="8">7</tspan></text>
<line x1="346.2" y1="626" x2="346.2" y2="864" stroke="#ddd" stroke-width="0.5"/>
<line x1="403" y1="626" x2="403" y2="864" stroke="#ddd" stroke-width="0.5"/>
<text x="403" y="879" font-size="11" text-anchor="middle">10<tspan dy="-5" font-size="8">9</tspan></text>
<line x1="459.8" y1="626" x2="459.8" y2="864" stroke="#ddd" stroke-width="0.5"/>
<line x1="516.7" y1="626" x2="516.7" y2="864" stroke="#ddd" stroke-width="0.5"/>
<text x="516.7" y="879" font-size="11" text-anchor="middle">10<tspan dy="-5" font-size="8">11</tspan></text>
<line x1="573.5" y1="626" x2="573.5" y2="864" stroke="#ddd" stroke-width="0.5"/>
<line x1="630.3" y1="626" x2="630.3" y2="864" stroke="#ddd" stroke-width="0.5"/>
<text x="630.3" y="879" font-size="11" text-anchor="middle">10<tspan dy="-5" font-size="8">13</tspan></text>
<line x1="687.2" y1="626" x2="687.2" y2="864" stroke="#ddd" stroke-width="0.5"/>
<line x1="744" y1="626" x2="744" y2="864" stroke="#ddd" stroke-width="0.5"/>
<text x="744" y="879" font-size="11" text-anchor="middle">10<tspan dy="-5" font-size="8">15</tspan></text>
<line x1="62" y1="857" x2="744" y2="857" stroke="#ddd" stroke-width="0.5"/>
<text x="57" y="861" font-size="11" text-anchor="end">0.1</text>
<line x1="62" y1="809.9" x2="744" y2="809.9" stroke="#ddd" stroke-width="0.5"/>
<text x="57" y="813.9" font-size="11" text-anchor="end">0.15</text>
<line x1="62" y1="762.8" x2="744" y2="762.8" stroke="#ddd" stroke-width="0.5"/>
<text x="57" y="766.8" font-size="11" text-anchor="end">0.2</text>
<line x1="62" y1="715.8" x2="744" y2="715.8" stroke="#ddd" stroke-width="0.5"/>
<text x="57" y="719.8" font-size="11" text-anchor="end">0.25</text>
<line x1="62" y1="668.7" x2="744" y2="668.7" stroke="#ddd" stroke-width="0.5"/>
<text x="57" y="672.7" font-size="11" text-anchor="end">0.3</text>
<line x1="62" y1="746.9" x2="744" y2="746.9" stroke="#666" stroke-width="1.3" stroke-dasharray="6,4"/>
<polyline points="62,634.8 63.8,709.1 65.6,730.3 67.3,733.6 69.1,704.5 70.9,729.7 72.7,762.3 74.4,754.7 76.2,764.1 78,717.5 79.8,759.2 81.5,804.9 83.3,780.4 85.1,776.7 86.9,768.9 88.6,719.4 90.4,727.7 92.2,735.3 94,720 95.7,720 97.5,702.3 99.3,730.4 101.1,766 102.8,754.3 104.6,753.2 106.4,731.3 108.2,732.9 110,742.8 111.7,726.6 113.5,746.6 115.3,739 117.1,749.8 118.8,751 120.6,771.3 122.4,778 124.2,763.3 125.9,786.2 127.7,763.4 129.5,747.8 131.3,715.2 133,724.6 134.8,726 136.6,747.2 138.4,727.7 140.1,718.4 141.9,722.9 143.7,734.7 145.5,705 147.3,714 149,756.5 150.8,751.1 152.6,762.3 154.4,816.8 156.1,809.4 157.9,777.7 159.7,748.5 161.5,721.2 163.2,729.1 165,732.6 166.8,748.7 168.6,729.8 170.3,708.2 172.1,713.1 173.9,739.8 175.7,726.7 177.4,753.5 179.2,741.2 181,734.9 182.8,739 184.5,716.2 186.3,735.2 188.1,754.4 189.9,782.2 191.7,761.9 193.4,745.2 195.2,739.8 197,753.9 198.8,777.5 200.5,767.9 202.3,733 204.1,757.6 205.9,748.9 207.6,741.9 209.4,758.1 211.2,751.9 213,730.3 214.7,722.6 216.5,697.9 218.3,735.6 220.1,748.7 221.8,762.6 223.6,737.6 225.4,758.5 227.2,759.4 228.9,758.2 230.7,773.6 232.5,775.7 234.3,742.6 236.1,772.1 237.8,754.4 239.6,754.4 241.4,715 243.2,732.3 244.9,728.2 246.7,722.2 248.5,723.3 250.3,744.1 252,759.4 253.8,759.8 255.6,753.5 257.4,708.4 259.1,735.5 260.9,743.1 262.7,758.5 264.5,771.2 266.2,757.6 268,749.3 269.8,759.9 271.6,750.9 273.3,744.5 275.1,742.9 276.9,764.4 278.7,744.5 280.5,740.3 282.2,751.4 284,754.3 285.8,746.1 287.6,750.2 289.3,746.8 291.1,714.9 292.9,737.6 294.7,726.8 296.4,727 298.2,736.3 300,757.9 301.8,789.1 303.5,782.5 305.3,771.9 307.1,765.8 308.9,764.6 310.6,734.8 312.4,734.2 314.2,739.1 316,733.6 317.8,733 319.5,736.8 321.3,744.9 323.1,735.1 324.9,737.1 326.6,739.5 328.4,722.3 330.2,750 332,749.2 333.7,748.9 335.5,758.4 337.3,766.2 339.1,753.5 340.8,734.9 342.6,763.7 344.4,748.7 346.2,743.2 347.9,753.8 349.7,754.9 351.5,755.9 353.3,736.7 355,757.5 356.8,751.9 358.6,746.5 360.4,730.1 362.2,733.5 363.9,728.3 365.7,738.3 367.5,733.8 369.3,722.5 371,766.2 372.8,744.9 374.6,748.8 376.4,774.9 378.1,769.9 379.9,754.4 381.7,733.2 383.5,748.8 385.2,769.7 387,758.2 388.8,751.6 390.6,722.1 392.3,721 394.1,734.1 395.9,733.2 397.7,746.6 399.4,746.3 401.2,740.8 403,750.3 404.8,748.9 406.6,723.6 408.3,753.2 410.1,754.7 411.9,747.4 413.7,737.8 415.4,749.1 417.2,753.8 419,763.7 420.8,746.9 422.5,743 424.3,755.4 426.1,745 427.9,752.9 429.6,763.5 431.4,753.3 433.2,743.6 435,740.7 436.7,727.8 438.5,736.4 440.3,727.2 442.1,740.3 443.8,722.1 445.6,736.2 447.4,750 449.2,765.4 451,761.3 452.7,766.2 454.5,752.9 456.3,747.8 458.1,750.4 459.8,759 461.6,748 463.4,734.2 465.2,751 466.9,741.9 468.7,743.2 470.5,744.2 472.3,733.2 474,750.8 475.8,728.5 477.6,729.1 479.4,732.1 481.1,750.8 482.9,768.3 484.7,760.4 486.5,748.5 488.3,757.1 490,739.3 491.8,742 493.6,743.9 495.4,759.7 497.1,748.1 498.9,749.9 500.7,746.6 502.5,755.9 504.2,750.1 506,750.6 507.8,746.1 509.6,743.7 511.3,745.8 513.1,739.6 514.9,740.8 516.7,720.8 518.4,741.7 520.2,753.1 522,752.2 523.8,758.6 525.5,759.7 527.3,756.6 529.1,748.5 530.9,761.7 532.7,756.4 534.4,749.5 536.2,748.8 538,754.8 539.8,746.4 541.5,744.7 543.3,739.3 545.1,739.6 546.9,740.1 548.6,747.2 550.4,741.4 552.2,737.6 554,750.6 555.7,750.9 557.5,753.2 559.3,746 561.1,752.3 562.8,747.8 564.6,755.3 566.4,755.8 568.2,752.3 569.9,747.9 571.7,745.7 573.5,737.4 575.3,766.4 577.1,757 578.8,749.9 580.6,752.3 582.4,749.2 584.2,746.6 585.9,738.1 587.7,728.5 589.5,725.3 591.3,729.2 593,751.5 594.8,746 596.6,764.2 598.4,754.9 600.1,754.6 601.9,746 603.7,751 605.5,756.7 607.2,754.6 609,752.3 610.8,747.8 612.6,752.6 614.3,749.9 616.1,744.4 617.9,752.1 619.7,743.4 621.5,746.3 623.2,732.3 625,727.4 626.8,742.4 628.6,751.2 630.3,759.9 632.1,752.4 633.9,751.3 635.7,749.1 637.4,753.8 639.2,747.4 641,742.9 642.8,741.7 644.5,743.7 646.3,752.9 648.1,758.9 649.9,756.7 651.6,743.8 653.4,753.5 655.2,737.3 657,733.4 658.8,745.6 660.5,734.2 662.3,741.1 664.1,739.2 665.9,738.1 667.6,736 669.4,743.8 671.2,744.1 673,748.6 674.7,742.7 676.5,749.9 678.3,761.1 680.1,759 681.8,754.8 683.6,754.2 685.4,750.6 687.2,749.6 688.9,753.8 690.7,741.4 692.5,750 694.3,743.5 696,743 697.8,727.9 699.6,737.6 701.4,748.3 703.2,753.4 704.9,747.5 706.7,749.8 708.5,753 710.3,751.7 712,750.2 713.8,747.8 715.6,751.2 717.4,752.2 719.1,741.1 720.9,740.1 722.7,750 724.5,746 726.2,753.3 728,753.7 729.8,756.1 731.6,745.1 733.3,744.1 735.1,735.9 736.9,744 738.7,728.6 740.4,741.2 742.2,743.7 744,749.3" fill="none" stroke="#000" stroke-width="0.85"/>
<line x1="414" y1="636" x2="444" y2="636" stroke="#000" stroke-width="0.85"/>
<text x="450" y="640" font-size="11">Im of partial Euler product, χ2</text>
<line x1="414" y1="651" x2="444" y2="651" stroke="#666" stroke-width="1.3" stroke-dasharray="6,4"/>
<text x="450" y="655" font-size="11">Im L(1/2,χ2) = 0.216964768…</text>
<text x="14" y="745" font-size="11" text-anchor="middle" transform="rotate(-90 14 745)">χ2: imaginary part</text>
<text x="403.0" y="896" font-size="11" text-anchor="middle">x</text>
</svg>
